<?xml version="1.0" encoding="UTF-8" standalone="no"?>
<!DOCTYPE svg PUBLIC "-//W3C//DTD SVG 1.1//EN" "http://www.w3.org/Graphics/SVG/1.1/DTD/svg11.dtd">
<svg width="100%" height="100%" viewBox="0 0 1024 1024" version="1.1" xmlns="http://www.w3.org/2000/svg" xmlns:xlink="http://www.w3.org/1999/xlink" xml:space="preserve" xmlns:serif="http://www.serif.com/" style="fill-rule:evenodd;clip-rule:evenodd;stroke-linejoin:round;stroke-miterlimit:2;">
    <g transform="matrix(85.3333,0,0,85.3333,0,0)">
        <g transform="matrix(1.02167,0,0,1.02167,-0.179153,-0.12904)">
            <circle cx="6.048" cy="5.999" r="5.383" style="fill:rgb(54,68,56);"/>
        </g>
        <g transform="matrix(0.0336852,0,0,0.0336852,1.68829,1.74586)">
            <path d="M232,48L168,48C150.445,48 136,62.445 136,80L136,167.73C136.057,171.989 132.774,175.615 128.53,175.98C128.354,175.992 128.177,175.998 128,175.998C123.611,175.998 120,172.386 120,167.998L120,80C120,62.445 105.555,48 88,48L24,48C19.611,48 16,51.611 16,56L16,200C16,204.389 19.611,208 24,208L96,208C109.143,208 119.967,218.797 120,231.94C119.935,235.279 121.994,238.315 125.12,239.49C126.039,239.845 127.015,240.026 128,240.026C132.389,240.026 136,236.415 136,232.026L136,232C136,218.834 146.834,208 160,208L232,208C236.389,208 240,204.389 240,200L240,56C240,51.611 236.389,48 232,48ZM208.018,168L168.27,168C164.011,168.057 160.385,164.774 160.02,160.53C160.008,160.354 160.002,160.177 160.002,160C160.002,155.611 163.614,152 168.002,152L207.75,152C212.009,151.943 215.635,155.226 216,159.47C216.012,159.646 216.018,159.823 216.018,160C216.018,164.389 212.406,168 208.018,168ZM208.018,136L168.27,136C164.011,136.057 160.385,132.774 160.02,128.53C160.008,128.354 160.002,128.177 160.002,128C160.002,123.611 163.614,120 168.002,120L207.75,120C212.009,119.943 215.635,123.226 216,127.47C216.012,127.646 216.018,127.823 216.018,128C216.018,132.389 212.406,136 208.018,136ZM208.018,104L168.27,104C164.003,104.068 160.365,100.782 160,96.53C159.988,96.354 159.982,96.177 159.982,96C159.982,91.611 163.594,88 167.982,88L207.73,88C211.997,87.932 215.635,91.218 216,95.47C216.012,95.646 216.018,95.823 216.018,96C216.018,100.389 212.406,104 208.018,104Z" style="fill:rgb(238,209,163);fill-rule:nonzero;"/>
        </g>
    </g>
</svg>
